<?xml version="1.0" encoding="UTF-8"?>
<svg width="30px" height="48px" viewBox="0 0 30 48" version="1.1" xmlns="http://www.w3.org/2000/svg">
  <!-- Generator: Sketch 52.6 (67491) - http://www.bohemiancoding.com/sketch -->
  <title>Group 4</title>
  <desc>Created with Sketch.</desc>
  <g id="Design" stroke="none" stroke-width="1" fill="none" fill-rule="evenodd">
    <g id="Glia" transform="translate(-374.000000, -7818.000000)" fill="#FFFFFF">
      <g id="Group-4" transform="translate(374.000000, 7818.000000)">
        <g id="Group-17">
          <path
            d="M21.1767219,34.437386 L6.68449526,38.2746733 C2.68240336,39.3343756 0.303135276,43.3835849 1.37014915,47.3186116 L8.61640184,45.400014 L23.1089072,41.5627267 C27.1106274,40.5031163 29.4898955,36.4538151 28.4227887,32.5186047 L21.1767219,34.437386 Z"
            id="Fill-4" fill-rule="nonzero"></path>
          <path
            d="M11.7472818,3.81735349 C11.7481182,3.8201093 11.7487687,3.82277326 11.7495122,3.82571279 C5.03314215,5.2530407 6.60804744e-13,11.1341314 6.60804744e-13,18.1720209 C6.60804744e-13,26.278064 6.6760387,32.8491186 14.9110588,32.8491186 C23.1461719,32.8491186 29.8221176,26.278064 29.8221176,18.1720209 C29.8221176,13.6274081 27.7235889,9.56515465 24.4281311,6.87272442 C26.0974196,5.08254767 26.8322113,2.51780349 26.1502034,-2.80664381e-13 L11.7472818,3.81735349 Z M14.9110588,10.833564 C19.0285689,10.833564 22.3664024,14.1191372 22.3664024,18.1720209 C22.3664024,22.2249965 19.0285689,25.5106616 14.9110588,25.5106616 C10.7937346,25.5106616 7.45562234,22.2249965 7.45562234,18.1720209 C7.45562234,14.1191372 10.7937346,10.833564 14.9110588,10.833564 Z"
            id="Fill-10"></path>
        </g>
      </g>
    </g>
  </g>
</svg>